<mxfile host="app.diagrams.net" modified="2021-12-06T00:41:43.190Z" agent="5.0 (Macintosh; Intel Mac OS X 10_15_7) AppleWebKit/537.36 (KHTML, like Gecko) Chrome/96.0.4664.55 Safari/537.36" etag="Lf5w3_wqYrJ9ETn59vz2" version="15.8.9" type="github" pages="4">
  <diagram name="Page-1" id="6133507b-19e7-1e82-6fc7-422aa6c4b21f">
    <mxGraphModel dx="1871" dy="564" grid="1" gridSize="10" guides="1" tooltips="1" connect="1" arrows="1" fold="1" page="1" pageScale="1" pageWidth="1100" pageHeight="850" background="none" math="0" shadow="0">
      <root>
        <mxCell id="0" />
        <mxCell id="1" parent="0" />
        <mxCell id="Sk1ZrhrtNWhfhwWsfaMM-24" value="&lt;p style=&quot;margin: 0px ; margin-top: 4px ; text-align: center&quot;&gt;&lt;i&gt;&amp;lt;&amp;lt;Interface&amp;gt;&amp;gt;&lt;/i&gt;&lt;br&gt;&lt;/p&gt;&lt;p style=&quot;margin: 0px ; margin-top: 4px ; text-align: center&quot;&gt;&lt;i&gt;IKeybindingRegistryService&lt;/i&gt;&lt;/p&gt;&lt;p style=&quot;margin: 0px ; margin-left: 4px&quot;&gt;&lt;br&gt;&lt;/p&gt;&lt;hr size=&quot;1&quot;&gt;&lt;p style=&quot;margin: 0px ; margin-left: 4px&quot;&gt;&lt;br&gt;&lt;/p&gt;" style="verticalAlign=top;align=left;overflow=fill;fontSize=12;fontFamily=Helvetica;html=1;rounded=0;shadow=0;comic=0;labelBackgroundColor=none;strokeWidth=1" vertex="1" parent="1">
          <mxGeometry x="-530" y="390" width="335" height="70" as="geometry" />
        </mxCell>
        <mxCell id="Sk1ZrhrtNWhfhwWsfaMM-25" value="Extends" style="endArrow=block;endSize=16;endFill=0;html=1;rounded=0;exitX=0.5;exitY=0;exitDx=0;exitDy=0;entryX=0.5;entryY=1;entryDx=0;entryDy=0;" edge="1" parent="1" source="Sk1ZrhrtNWhfhwWsfaMM-24" target="Sk1ZrhrtNWhfhwWsfaMM-26">
          <mxGeometry width="160" relative="1" as="geometry">
            <mxPoint x="-390" y="330" as="sourcePoint" />
            <mxPoint x="-230" y="330" as="targetPoint" />
          </mxGeometry>
        </mxCell>
        <mxCell id="Sk1ZrhrtNWhfhwWsfaMM-26" value="&lt;p style=&quot;margin: 0px ; margin-top: 4px ; text-align: center&quot;&gt;&lt;i&gt;&amp;lt;&amp;lt;Interface&amp;gt;&amp;gt;&lt;/i&gt;&lt;br&gt;&lt;/p&gt;&lt;p style=&quot;margin: 0px ; margin-top: 4px ; text-align: center&quot;&gt;&lt;i&gt;KeybindingRegistry&lt;/i&gt;&lt;/p&gt;&lt;p style=&quot;margin: 0px ; margin-left: 4px&quot;&gt;&lt;br&gt;&lt;/p&gt;&lt;hr size=&quot;1&quot;&gt;&lt;p style=&quot;margin: 0px ; margin-left: 4px&quot;&gt;init(): void;&lt;/p&gt;&lt;p style=&quot;margin: 0px ; margin-left: 4px&quot;&gt;&lt;span&gt;initialize(): void;&lt;/span&gt;&lt;/p&gt;&lt;p style=&quot;margin: 0px ; margin-left: 4px&quot;&gt;registerKeybinding(binding: IKeybinding, scope?: KeybindingScope): IDisposable;&lt;/p&gt;&lt;p style=&quot;margin: 0px ; margin-left: 4px&quot;&gt;unregisterKeybinding(keyOrBinding: IKeybinding | string, scope?: KeybindingScope): IDisposable;&lt;/p&gt;&lt;p style=&quot;margin: 0px ; margin-left: 4px&quot;&gt;getKeybindingForCommand(commandId: string): IKeybindingScope[];&lt;/p&gt;&lt;p style=&quot;margin: 0px ; margin-left: 4px&quot;&gt;getKeybindingsForKeySequence(&lt;span&gt;keySequence: KeySequence,&amp;nbsp;&lt;/span&gt;&lt;span&gt;event?: KeyboardEvent&lt;/span&gt;&lt;span&gt;): KeybindingsResultCollection.KeybindingsResult;&lt;/span&gt;&lt;/p&gt;" style="verticalAlign=top;align=left;overflow=fill;fontSize=12;fontFamily=Helvetica;html=1;rounded=0;shadow=0;comic=0;labelBackgroundColor=none;strokeWidth=1" vertex="1" parent="1">
          <mxGeometry x="-1000" y="160" width="740" height="160" as="geometry" />
        </mxCell>
        <mxCell id="Sk1ZrhrtNWhfhwWsfaMM-27" value="&lt;p style=&quot;margin: 0px ; margin-top: 4px ; text-align: center&quot;&gt;&lt;i&gt;&amp;lt;&amp;lt;Interface&amp;gt;&amp;gt;&lt;/i&gt;&lt;br&gt;&lt;/p&gt;&lt;p style=&quot;margin: 0px ; margin-top: 4px ; text-align: center&quot;&gt;&lt;i&gt;KeybindingService&lt;/i&gt;&lt;/p&gt;&lt;p style=&quot;margin: 0px ; margin-left: 4px&quot;&gt;&lt;br&gt;&lt;/p&gt;&lt;hr size=&quot;1&quot;&gt;&lt;p style=&quot;margin: 0px ; margin-left: 4px&quot;&gt;run(event: KeyboardEvent): void;&lt;br&gt;&lt;/p&gt;&lt;p style=&quot;margin: 0px ; margin-left: 4px&quot;&gt;resolveModifierKey(event: KeyboardEvent): void;&lt;br&gt;&lt;/p&gt;&lt;p style=&quot;margin: 0px ; margin-left: 4px&quot;&gt;convert(event: KeyboardEvent, separator?: string): string;&lt;br&gt;&lt;/p&gt;&lt;p style=&quot;margin: 0px ; margin-left: 4px&quot;&gt;clearConvert(): void;&lt;br&gt;&lt;/p&gt;" style="verticalAlign=top;align=left;overflow=fill;fontSize=12;fontFamily=Helvetica;html=1;rounded=0;shadow=0;comic=0;labelBackgroundColor=none;strokeWidth=1" vertex="1" parent="1">
          <mxGeometry x="-230" y="175" width="340" height="130" as="geometry" />
        </mxCell>
        <mxCell id="Sk1ZrhrtNWhfhwWsfaMM-28" value="Extends" style="endArrow=block;endSize=16;endFill=0;html=1;rounded=0;entryX=0.5;entryY=1;entryDx=0;entryDy=0;exitX=0.5;exitY=0;exitDx=0;exitDy=0;" edge="1" parent="1" source="Sk1ZrhrtNWhfhwWsfaMM-24" target="Sk1ZrhrtNWhfhwWsfaMM-27">
          <mxGeometry width="160" relative="1" as="geometry">
            <mxPoint x="-440" y="400" as="sourcePoint" />
            <mxPoint x="-430" y="320" as="targetPoint" />
          </mxGeometry>
        </mxCell>
        <mxCell id="Sk1ZrhrtNWhfhwWsfaMM-29" value="KeybindingRegistryService" style="swimlane;html=1;fontStyle=1;align=center;verticalAlign=top;childLayout=stackLayout;horizontal=1;startSize=26;horizontalStack=0;resizeParent=1;resizeLast=0;collapsible=1;marginBottom=0;swimlaneFillColor=#ffffff;rounded=0;shadow=0;comic=0;labelBackgroundColor=none;strokeWidth=1;fillColor=none;fontFamily=Verdana;fontSize=12" vertex="1" parent="1">
          <mxGeometry x="-457.5" y="490" width="190" height="40" as="geometry" />
        </mxCell>
        <mxCell id="Sk1ZrhrtNWhfhwWsfaMM-32" value="" style="line;html=1;strokeWidth=1;fillColor=none;align=left;verticalAlign=middle;spacingTop=-1;spacingLeft=3;spacingRight=3;rotatable=0;labelPosition=right;points=[];portConstraint=eastwest;" vertex="1" parent="Sk1ZrhrtNWhfhwWsfaMM-29">
          <mxGeometry y="26" width="190" height="14" as="geometry" />
        </mxCell>
        <mxCell id="Sk1ZrhrtNWhfhwWsfaMM-34" value="" style="endArrow=block;dashed=1;endFill=0;endSize=12;html=1;rounded=0;exitX=0.5;exitY=0;exitDx=0;exitDy=0;entryX=0.5;entryY=1;entryDx=0;entryDy=0;" edge="1" parent="1" source="Sk1ZrhrtNWhfhwWsfaMM-29" target="Sk1ZrhrtNWhfhwWsfaMM-24">
          <mxGeometry width="160" relative="1" as="geometry">
            <mxPoint x="-520" y="570" as="sourcePoint" />
            <mxPoint x="-360" y="570" as="targetPoint" />
          </mxGeometry>
        </mxCell>
      </root>
    </mxGraphModel>
  </diagram>
  <diagram id="3DLcP4PbYQO-z7o-z5LB" name="Page-2">
    <mxGraphModel dx="1598" dy="564" grid="1" gridSize="10" guides="1" tooltips="1" connect="1" arrows="1" fold="1" page="1" pageScale="1" pageWidth="827" pageHeight="1169" math="0" shadow="0">
      <root>
        <mxCell id="7QAZc1fpjdFfEJlcIA2S-0" />
        <mxCell id="7QAZc1fpjdFfEJlcIA2S-1" parent="7QAZc1fpjdFfEJlcIA2S-0" />
        <mxCell id="7QAZc1fpjdFfEJlcIA2S-2" value="&lt;p style=&quot;margin: 0px ; margin-top: 4px ; text-align: center&quot;&gt;&lt;i&gt;&amp;lt;&amp;lt;Interface&amp;gt;&amp;gt;&lt;/i&gt;&lt;br&gt;&lt;/p&gt;&lt;p style=&quot;margin: 0px ; margin-top: 4px ; text-align: center&quot;&gt;&lt;i&gt;KeybindingContribution&lt;/i&gt;&lt;/p&gt;&lt;p style=&quot;margin: 0px ; margin-left: 4px&quot;&gt;&lt;br&gt;&lt;/p&gt;&lt;hr size=&quot;1&quot;&gt;&lt;p style=&quot;margin: 0px ; margin-left: 4px&quot;&gt;registerKeybindings(keybindings: KeybindingRegistry): void;&lt;br&gt;&lt;/p&gt;" style="verticalAlign=top;align=left;overflow=fill;fontSize=12;fontFamily=Helvetica;html=1;rounded=0;shadow=0;comic=0;labelBackgroundColor=none;strokeWidth=1" vertex="1" parent="7QAZc1fpjdFfEJlcIA2S-1">
          <mxGeometry x="50" y="200" width="335" height="90" as="geometry" />
        </mxCell>
        <mxCell id="7QAZc1fpjdFfEJlcIA2S-3" value="WorkbenchKeybindingContribution" style="swimlane;html=1;fontStyle=1;align=center;verticalAlign=top;childLayout=stackLayout;horizontal=1;startSize=26;horizontalStack=0;resizeParent=1;resizeLast=0;collapsible=1;marginBottom=0;swimlaneFillColor=#ffffff;rounded=0;shadow=0;comic=0;labelBackgroundColor=none;strokeWidth=1;fillColor=none;fontFamily=Verdana;fontSize=12" vertex="1" parent="7QAZc1fpjdFfEJlcIA2S-1">
          <mxGeometry x="320" y="320" width="255" height="34" as="geometry" />
        </mxCell>
        <mxCell id="7QAZc1fpjdFfEJlcIA2S-4" value="" style="line;html=1;strokeWidth=1;fillColor=none;align=left;verticalAlign=middle;spacingTop=-1;spacingLeft=3;spacingRight=3;rotatable=0;labelPosition=right;points=[];portConstraint=eastwest;" vertex="1" parent="7QAZc1fpjdFfEJlcIA2S-3">
          <mxGeometry y="26" width="255" height="8" as="geometry" />
        </mxCell>
        <mxCell id="7QAZc1fpjdFfEJlcIA2S-5" value="PainterKeybindingContribution" style="swimlane;html=1;fontStyle=1;align=center;verticalAlign=top;childLayout=stackLayout;horizontal=1;startSize=26;horizontalStack=0;resizeParent=1;resizeLast=0;collapsible=1;marginBottom=0;swimlaneFillColor=#ffffff;rounded=0;shadow=0;comic=0;labelBackgroundColor=none;strokeWidth=1;fillColor=none;fontFamily=Verdana;fontSize=12" vertex="1" parent="7QAZc1fpjdFfEJlcIA2S-1">
          <mxGeometry x="-150" y="330" width="230" height="34" as="geometry" />
        </mxCell>
        <mxCell id="7QAZc1fpjdFfEJlcIA2S-6" value="" style="line;html=1;strokeWidth=1;fillColor=none;align=left;verticalAlign=middle;spacingTop=-1;spacingLeft=3;spacingRight=3;rotatable=0;labelPosition=right;points=[];portConstraint=eastwest;" vertex="1" parent="7QAZc1fpjdFfEJlcIA2S-5">
          <mxGeometry y="26" width="230" height="8" as="geometry" />
        </mxCell>
        <mxCell id="7QAZc1fpjdFfEJlcIA2S-7" value="AssetsPanelKeybindingContribution" style="swimlane;html=1;fontStyle=1;align=center;verticalAlign=top;childLayout=stackLayout;horizontal=1;startSize=26;horizontalStack=0;resizeParent=1;resizeLast=0;collapsible=1;marginBottom=0;swimlaneFillColor=#ffffff;rounded=0;shadow=0;comic=0;labelBackgroundColor=none;strokeWidth=1;fillColor=none;fontFamily=Verdana;fontSize=12" vertex="1" parent="7QAZc1fpjdFfEJlcIA2S-1">
          <mxGeometry x="-60" y="380" width="255" height="34" as="geometry" />
        </mxCell>
        <mxCell id="7QAZc1fpjdFfEJlcIA2S-8" value="" style="line;html=1;strokeWidth=1;fillColor=none;align=left;verticalAlign=middle;spacingTop=-1;spacingLeft=3;spacingRight=3;rotatable=0;labelPosition=right;points=[];portConstraint=eastwest;" vertex="1" parent="7QAZc1fpjdFfEJlcIA2S-7">
          <mxGeometry y="26" width="255" height="8" as="geometry" />
        </mxCell>
        <mxCell id="7QAZc1fpjdFfEJlcIA2S-9" value="..." style="swimlane;html=1;fontStyle=1;align=center;verticalAlign=top;childLayout=stackLayout;horizontal=1;startSize=26;horizontalStack=0;resizeParent=1;resizeLast=0;collapsible=1;marginBottom=0;swimlaneFillColor=#ffffff;rounded=0;shadow=0;comic=0;labelBackgroundColor=none;strokeWidth=1;fillColor=none;fontFamily=Verdana;fontSize=12" vertex="1" parent="7QAZc1fpjdFfEJlcIA2S-1">
          <mxGeometry x="210" y="380" width="255" height="34" as="geometry" />
        </mxCell>
        <mxCell id="7QAZc1fpjdFfEJlcIA2S-10" value="" style="line;html=1;strokeWidth=1;fillColor=none;align=left;verticalAlign=middle;spacingTop=-1;spacingLeft=3;spacingRight=3;rotatable=0;labelPosition=right;points=[];portConstraint=eastwest;" vertex="1" parent="7QAZc1fpjdFfEJlcIA2S-9">
          <mxGeometry y="26" width="255" height="8" as="geometry" />
        </mxCell>
        <mxCell id="7QAZc1fpjdFfEJlcIA2S-11" value="" style="endArrow=block;dashed=1;endFill=0;endSize=12;html=1;rounded=0;exitX=0.5;exitY=0;exitDx=0;exitDy=0;entryX=0;entryY=1;entryDx=0;entryDy=0;" edge="1" parent="7QAZc1fpjdFfEJlcIA2S-1" source="7QAZc1fpjdFfEJlcIA2S-5" target="7QAZc1fpjdFfEJlcIA2S-2">
          <mxGeometry width="160" relative="1" as="geometry">
            <mxPoint x="-140" y="250" as="sourcePoint" />
            <mxPoint x="20" y="250" as="targetPoint" />
          </mxGeometry>
        </mxCell>
        <mxCell id="7QAZc1fpjdFfEJlcIA2S-12" value="" style="endArrow=block;dashed=1;endFill=0;endSize=12;html=1;rounded=0;exitX=0.5;exitY=0;exitDx=0;exitDy=0;entryX=0.75;entryY=1;entryDx=0;entryDy=0;" edge="1" parent="7QAZc1fpjdFfEJlcIA2S-1" source="7QAZc1fpjdFfEJlcIA2S-3" target="7QAZc1fpjdFfEJlcIA2S-2">
          <mxGeometry width="160" relative="1" as="geometry">
            <mxPoint x="55" y="330" as="sourcePoint" />
            <mxPoint x="227.5" y="290" as="targetPoint" />
          </mxGeometry>
        </mxCell>
        <mxCell id="7QAZc1fpjdFfEJlcIA2S-13" value="" style="endArrow=block;dashed=1;endFill=0;endSize=12;html=1;rounded=0;exitX=0.5;exitY=0;exitDx=0;exitDy=0;entryX=0.25;entryY=1;entryDx=0;entryDy=0;" edge="1" parent="7QAZc1fpjdFfEJlcIA2S-1" source="7QAZc1fpjdFfEJlcIA2S-7" target="7QAZc1fpjdFfEJlcIA2S-2">
          <mxGeometry width="160" relative="1" as="geometry">
            <mxPoint x="65" y="340" as="sourcePoint" />
            <mxPoint x="220" y="280" as="targetPoint" />
          </mxGeometry>
        </mxCell>
        <mxCell id="7QAZc1fpjdFfEJlcIA2S-14" value="" style="endArrow=block;dashed=1;endFill=0;endSize=12;html=1;rounded=0;exitX=0.5;exitY=0;exitDx=0;exitDy=0;entryX=0.5;entryY=1;entryDx=0;entryDy=0;" edge="1" parent="7QAZc1fpjdFfEJlcIA2S-1" source="7QAZc1fpjdFfEJlcIA2S-9" target="7QAZc1fpjdFfEJlcIA2S-2">
          <mxGeometry width="160" relative="1" as="geometry">
            <mxPoint x="75" y="350" as="sourcePoint" />
            <mxPoint x="220" y="280" as="targetPoint" />
          </mxGeometry>
        </mxCell>
      </root>
    </mxGraphModel>
  </diagram>
  <diagram id="nOrT7lzQLkfOn-5Jsc0i" name="Page-3">
    <mxGraphModel dx="1598" dy="564" grid="1" gridSize="10" guides="1" tooltips="1" connect="1" arrows="1" fold="1" page="1" pageScale="1" pageWidth="827" pageHeight="1169" math="0" shadow="0">
      <root>
        <mxCell id="fB2w9z5bF0Bwj9CKNxeb-0" />
        <mxCell id="fB2w9z5bF0Bwj9CKNxeb-1" parent="fB2w9z5bF0Bwj9CKNxeb-0" />
        <mxCell id="fB2w9z5bF0Bwj9CKNxeb-2" value="KeybindingRegistryService" style="swimlane;html=1;fontStyle=1;align=center;verticalAlign=top;childLayout=stackLayout;horizontal=1;startSize=26;horizontalStack=0;resizeParent=1;resizeLast=0;collapsible=1;marginBottom=0;swimlaneFillColor=#ffffff;rounded=0;shadow=0;comic=0;labelBackgroundColor=none;strokeWidth=1;fillColor=none;fontFamily=Verdana;fontSize=12" vertex="1" parent="fB2w9z5bF0Bwj9CKNxeb-1">
          <mxGeometry x="-660" y="210" width="190" height="40" as="geometry" />
        </mxCell>
        <mxCell id="fB2w9z5bF0Bwj9CKNxeb-3" value="" style="line;html=1;strokeWidth=1;fillColor=none;align=left;verticalAlign=middle;spacingTop=-1;spacingLeft=3;spacingRight=3;rotatable=0;labelPosition=right;points=[];portConstraint=eastwest;" vertex="1" parent="fB2w9z5bF0Bwj9CKNxeb-2">
          <mxGeometry y="26" width="190" height="14" as="geometry" />
        </mxCell>
        <mxCell id="fB2w9z5bF0Bwj9CKNxeb-4" value="CommandRegistryService" style="swimlane;html=1;fontStyle=1;align=center;verticalAlign=top;childLayout=stackLayout;horizontal=1;startSize=26;horizontalStack=0;resizeParent=1;resizeLast=0;collapsible=1;marginBottom=0;swimlaneFillColor=#ffffff;rounded=0;shadow=0;comic=0;labelBackgroundColor=none;strokeWidth=1;fillColor=none;fontFamily=Verdana;fontSize=12" vertex="1" parent="fB2w9z5bF0Bwj9CKNxeb-1">
          <mxGeometry x="-540" y="280" width="190" height="40" as="geometry" />
        </mxCell>
        <mxCell id="fB2w9z5bF0Bwj9CKNxeb-5" value="" style="line;html=1;strokeWidth=1;fillColor=none;align=left;verticalAlign=middle;spacingTop=-1;spacingLeft=3;spacingRight=3;rotatable=0;labelPosition=right;points=[];portConstraint=eastwest;" vertex="1" parent="fB2w9z5bF0Bwj9CKNxeb-4">
          <mxGeometry y="26" width="190" height="14" as="geometry" />
        </mxCell>
        <mxCell id="fB2w9z5bF0Bwj9CKNxeb-6" value="ContextKeyService" style="swimlane;html=1;fontStyle=1;align=center;verticalAlign=top;childLayout=stackLayout;horizontal=1;startSize=26;horizontalStack=0;resizeParent=1;resizeLast=0;collapsible=1;marginBottom=0;swimlaneFillColor=#ffffff;rounded=0;shadow=0;comic=0;labelBackgroundColor=none;strokeWidth=1;fillColor=none;fontFamily=Verdana;fontSize=12" vertex="1" parent="fB2w9z5bF0Bwj9CKNxeb-1">
          <mxGeometry x="-770" y="280" width="190" height="40" as="geometry" />
        </mxCell>
        <mxCell id="fB2w9z5bF0Bwj9CKNxeb-7" value="" style="line;html=1;strokeWidth=1;fillColor=none;align=left;verticalAlign=middle;spacingTop=-1;spacingLeft=3;spacingRight=3;rotatable=0;labelPosition=right;points=[];portConstraint=eastwest;" vertex="1" parent="fB2w9z5bF0Bwj9CKNxeb-6">
          <mxGeometry y="26" width="190" height="14" as="geometry" />
        </mxCell>
        <mxCell id="fB2w9z5bF0Bwj9CKNxeb-8" value="Use" style="endArrow=open;endSize=12;dashed=1;html=1;rounded=0;entryX=0.5;entryY=0;entryDx=0;entryDy=0;exitX=0.5;exitY=1;exitDx=0;exitDy=0;" edge="1" parent="fB2w9z5bF0Bwj9CKNxeb-1" source="fB2w9z5bF0Bwj9CKNxeb-2" target="fB2w9z5bF0Bwj9CKNxeb-6">
          <mxGeometry width="160" relative="1" as="geometry">
            <mxPoint x="-570" y="260" as="sourcePoint" />
            <mxPoint x="-440" y="410" as="targetPoint" />
          </mxGeometry>
        </mxCell>
        <mxCell id="fB2w9z5bF0Bwj9CKNxeb-9" value="Use" style="endArrow=open;endSize=12;dashed=1;html=1;rounded=0;entryX=0.5;entryY=0;entryDx=0;entryDy=0;exitX=0.5;exitY=1;exitDx=0;exitDy=0;" edge="1" parent="fB2w9z5bF0Bwj9CKNxeb-1" source="fB2w9z5bF0Bwj9CKNxeb-2" target="fB2w9z5bF0Bwj9CKNxeb-4">
          <mxGeometry width="160" relative="1" as="geometry">
            <mxPoint x="-555" y="260" as="sourcePoint" />
            <mxPoint x="-685" y="310" as="targetPoint" />
          </mxGeometry>
        </mxCell>
      </root>
    </mxGraphModel>
  </diagram>
  <diagram id="RWDbi02aT5DXSTX8Y0Rs" name="Page-4">
    <mxGraphModel dx="1598" dy="564" grid="1" gridSize="10" guides="1" tooltips="1" connect="1" arrows="1" fold="1" page="1" pageScale="1" pageWidth="827" pageHeight="1169" math="0" shadow="0">
      <root>
        <mxCell id="aRxAqIZzdnKw0f7hVjHK-0" />
        <mxCell id="aRxAqIZzdnKw0f7hVjHK-1" parent="aRxAqIZzdnKw0f7hVjHK-0" />
        <mxCell id="aRxAqIZzdnKw0f7hVjHK-2" value="&lt;p style=&quot;margin: 0px ; margin-top: 4px ; text-align: center&quot;&gt;&lt;i&gt;&amp;lt;&amp;lt;Interface&amp;gt;&amp;gt;&lt;/i&gt;&lt;br&gt;&lt;/p&gt;&lt;p style=&quot;margin: 0px ; margin-top: 4px ; text-align: center&quot;&gt;&lt;i&gt;IContextKey&lt;/i&gt;&lt;br&gt;&lt;/p&gt;&lt;p style=&quot;margin: 0px ; margin-left: 4px&quot;&gt;&lt;br&gt;&lt;/p&gt;&lt;hr size=&quot;1&quot;&gt;&lt;p style=&quot;margin: 0px ; margin-left: 4px&quot;&gt;&amp;nbsp; set(value: T): void;&lt;/p&gt;&lt;p style=&quot;margin: 0px ; margin-left: 4px&quot;&gt;&amp;nbsp; reset(): void;&lt;/p&gt;&lt;p style=&quot;margin: 0px ; margin-left: 4px&quot;&gt;&amp;nbsp; get(): T | undefined;&lt;/p&gt;" style="verticalAlign=top;align=left;overflow=fill;fontSize=12;fontFamily=Helvetica;html=1;rounded=0;shadow=0;comic=0;labelBackgroundColor=none;strokeWidth=1" vertex="1" parent="aRxAqIZzdnKw0f7hVjHK-1">
          <mxGeometry x="-720" y="110" width="145" height="110" as="geometry" />
        </mxCell>
        <mxCell id="aRxAqIZzdnKw0f7hVjHK-3" value="Extends" style="endArrow=block;endSize=16;endFill=0;html=1;rounded=0;exitX=0.5;exitY=0;exitDx=0;exitDy=0;entryX=0.5;entryY=1;entryDx=0;entryDy=0;" edge="1" parent="aRxAqIZzdnKw0f7hVjHK-1" source="aRxAqIZzdnKw0f7hVjHK-11" target="aRxAqIZzdnKw0f7hVjHK-7">
          <mxGeometry width="160" relative="1" as="geometry">
            <mxPoint x="-390" y="330" as="sourcePoint" />
            <mxPoint x="-230" y="330" as="targetPoint" />
          </mxGeometry>
        </mxCell>
        <mxCell id="aRxAqIZzdnKw0f7hVjHK-4" value="&lt;p style=&quot;margin: 0px ; margin-top: 4px ; text-align: center&quot;&gt;&lt;i&gt;&amp;lt;&amp;lt;Interface&amp;gt;&amp;gt;&lt;/i&gt;&lt;br&gt;&lt;/p&gt;&lt;p style=&quot;margin: 0px ; margin-top: 4px ; text-align: center&quot;&gt;&lt;i&gt;IContextKeyService&lt;/i&gt;&lt;br&gt;&lt;/p&gt;&lt;p style=&quot;margin: 0px ; margin-left: 4px&quot;&gt;&lt;br&gt;&lt;/p&gt;&lt;hr size=&quot;1&quot;&gt;&lt;p style=&quot;margin: 0px ; margin-left: 4px&quot;&gt;&amp;nbsp; dispose(): void;&lt;/p&gt;&lt;p style=&quot;margin: 0px ; margin-left: 4px&quot;&gt;&amp;nbsp; createKey&amp;lt;T&amp;gt;(key: string, defaultValue: T | undefined): IContextKey&amp;lt;T&amp;gt;;&lt;/p&gt;&lt;p style=&quot;margin: 0px ; margin-left: 4px&quot;&gt;&amp;nbsp; contextMatchesRules(rules: ContextKeyExpression | undefined): boolean;&lt;/p&gt;&lt;p style=&quot;margin: 0px ; margin-left: 4px&quot;&gt;&amp;nbsp; match(expression: string | ContextKeyExpr | undefined, context?: HTMLElement | null): boolean;&lt;/p&gt;&lt;p style=&quot;margin: 0px ; margin-left: 4px&quot;&gt;&amp;nbsp; getContextKeyValue&amp;lt;T&amp;gt;(key: string): T | undefined;&lt;/p&gt;&lt;p style=&quot;margin: 0px ; margin-left: 4px&quot;&gt;&amp;nbsp; createScoped(target: IContextKeyServiceTarget): IContextKeyService;&lt;/p&gt;&lt;p style=&quot;margin: 0px ; margin-left: 4px&quot;&gt;&amp;nbsp; getContext(target: IContextKeyServiceTarget | null): IContext;&lt;/p&gt;" style="verticalAlign=top;align=left;overflow=fill;fontSize=12;fontFamily=Helvetica;html=1;rounded=0;shadow=0;comic=0;labelBackgroundColor=none;strokeWidth=1" vertex="1" parent="aRxAqIZzdnKw0f7hVjHK-1">
          <mxGeometry x="-678" y="280" width="530" height="170" as="geometry" />
        </mxCell>
        <mxCell id="aRxAqIZzdnKw0f7hVjHK-5" value="&lt;p style=&quot;margin: 0px ; margin-top: 4px ; text-align: center&quot;&gt;&lt;i&gt;&amp;lt;&amp;lt;Interface&amp;gt;&amp;gt;&lt;/i&gt;&lt;br&gt;&lt;/p&gt;&lt;p style=&quot;margin: 0px ; margin-top: 4px ; text-align: center&quot;&gt;&lt;i&gt;IContext&lt;/i&gt;&lt;br&gt;&lt;/p&gt;&lt;p style=&quot;margin: 0px ; margin-left: 4px&quot;&gt;&lt;br&gt;&lt;/p&gt;&lt;hr size=&quot;1&quot;&gt;&lt;p style=&quot;margin: 0px ; margin-left: 4px&quot;&gt;getValue&amp;lt;T&amp;gt;(key: string): T | undefined;&lt;br&gt;&lt;/p&gt;" style="verticalAlign=top;align=left;overflow=fill;fontSize=12;fontFamily=Helvetica;html=1;rounded=0;shadow=0;comic=0;labelBackgroundColor=none;strokeWidth=1" vertex="1" parent="aRxAqIZzdnKw0f7hVjHK-1">
          <mxGeometry x="-533" y="122.5" width="240" height="85" as="geometry" />
        </mxCell>
        <mxCell id="aRxAqIZzdnKw0f7hVjHK-6" value="Extends" style="endArrow=block;endSize=16;endFill=0;html=1;rounded=0;entryX=0.5;entryY=1;entryDx=0;entryDy=0;exitX=0.5;exitY=0;exitDx=0;exitDy=0;" edge="1" parent="aRxAqIZzdnKw0f7hVjHK-1" source="aRxAqIZzdnKw0f7hVjHK-13" target="aRxAqIZzdnKw0f7hVjHK-7">
          <mxGeometry width="160" relative="1" as="geometry">
            <mxPoint x="-440" y="400" as="sourcePoint" />
            <mxPoint x="-430" y="320" as="targetPoint" />
          </mxGeometry>
        </mxCell>
        <mxCell id="aRxAqIZzdnKw0f7hVjHK-7" value="AbstractContextKeyService" style="swimlane;html=1;fontStyle=1;align=center;verticalAlign=top;childLayout=stackLayout;horizontal=1;startSize=26;horizontalStack=0;resizeParent=1;resizeLast=0;collapsible=1;marginBottom=0;swimlaneFillColor=#ffffff;rounded=0;shadow=0;comic=0;labelBackgroundColor=none;strokeWidth=1;fillColor=none;fontFamily=Verdana;fontSize=12" vertex="1" parent="aRxAqIZzdnKw0f7hVjHK-1">
          <mxGeometry x="-508" y="500" width="190" height="40" as="geometry" />
        </mxCell>
        <mxCell id="aRxAqIZzdnKw0f7hVjHK-8" value="" style="line;html=1;strokeWidth=1;fillColor=none;align=left;verticalAlign=middle;spacingTop=-1;spacingLeft=3;spacingRight=3;rotatable=0;labelPosition=right;points=[];portConstraint=eastwest;" vertex="1" parent="aRxAqIZzdnKw0f7hVjHK-7">
          <mxGeometry y="26" width="190" height="14" as="geometry" />
        </mxCell>
        <mxCell id="aRxAqIZzdnKw0f7hVjHK-9" value="" style="endArrow=block;dashed=1;endFill=0;endSize=12;html=1;rounded=0;exitX=0.5;exitY=0;exitDx=0;exitDy=0;entryX=0.5;entryY=1;entryDx=0;entryDy=0;" edge="1" parent="aRxAqIZzdnKw0f7hVjHK-1" source="aRxAqIZzdnKw0f7hVjHK-7" target="aRxAqIZzdnKw0f7hVjHK-4">
          <mxGeometry width="160" relative="1" as="geometry">
            <mxPoint x="-520" y="570" as="sourcePoint" />
            <mxPoint x="-360" y="570" as="targetPoint" />
          </mxGeometry>
        </mxCell>
        <mxCell id="aRxAqIZzdnKw0f7hVjHK-10" value="&lt;p style=&quot;margin: 0px ; margin-top: 4px ; text-align: center&quot;&gt;&lt;i&gt;&amp;lt;&amp;lt;Interface&amp;gt;&amp;gt;&lt;/i&gt;&lt;br&gt;&lt;/p&gt;&lt;p style=&quot;margin: 0px ; margin-top: 4px ; text-align: center&quot;&gt;&lt;i&gt;IContextKeyServiceTarget&lt;/i&gt;&lt;br&gt;&lt;/p&gt;&lt;p style=&quot;margin: 0px ; margin-left: 4px&quot;&gt;&lt;br&gt;&lt;/p&gt;&lt;hr size=&quot;1&quot;&gt;&lt;p style=&quot;margin: 0px ; margin-left: 4px&quot;&gt;&amp;nbsp; parentElement: IContextKeyServiceTarget | null;&lt;/p&gt;&lt;p style=&quot;margin: 0px ; margin-left: 4px&quot;&gt;&amp;nbsp; setAttribute(attr: string, value: string): void;&lt;/p&gt;&lt;p style=&quot;margin: 0px ; margin-left: 4px&quot;&gt;&amp;nbsp; removeAttribute(attr: string): void;&lt;/p&gt;&lt;p style=&quot;margin: 0px ; margin-left: 4px&quot;&gt;&amp;nbsp; hasAttribute(attr: string): boolean;&lt;/p&gt;&lt;p style=&quot;margin: 0px ; margin-left: 4px&quot;&gt;&amp;nbsp; getAttribute(attr: string): string | null;&lt;/p&gt;" style="verticalAlign=top;align=left;overflow=fill;fontSize=12;fontFamily=Helvetica;html=1;rounded=0;shadow=0;comic=0;labelBackgroundColor=none;strokeWidth=1" vertex="1" parent="aRxAqIZzdnKw0f7hVjHK-1">
          <mxGeometry x="-270" y="95" width="290" height="140" as="geometry" />
        </mxCell>
        <mxCell id="aRxAqIZzdnKw0f7hVjHK-11" value="ContextKeyService" style="swimlane;html=1;fontStyle=1;align=center;verticalAlign=top;childLayout=stackLayout;horizontal=1;startSize=26;horizontalStack=0;resizeParent=1;resizeLast=0;collapsible=1;marginBottom=0;swimlaneFillColor=#ffffff;rounded=0;shadow=0;comic=0;labelBackgroundColor=none;strokeWidth=1;fillColor=none;fontFamily=Verdana;fontSize=12" vertex="1" parent="aRxAqIZzdnKw0f7hVjHK-1">
          <mxGeometry x="-650" y="590" width="190" height="40" as="geometry" />
        </mxCell>
        <mxCell id="aRxAqIZzdnKw0f7hVjHK-12" value="" style="line;html=1;strokeWidth=1;fillColor=none;align=left;verticalAlign=middle;spacingTop=-1;spacingLeft=3;spacingRight=3;rotatable=0;labelPosition=right;points=[];portConstraint=eastwest;" vertex="1" parent="aRxAqIZzdnKw0f7hVjHK-11">
          <mxGeometry y="26" width="190" height="14" as="geometry" />
        </mxCell>
        <mxCell id="aRxAqIZzdnKw0f7hVjHK-13" value="ScopedContextKeyService" style="swimlane;html=1;fontStyle=1;align=center;verticalAlign=top;childLayout=stackLayout;horizontal=1;startSize=26;horizontalStack=0;resizeParent=1;resizeLast=0;collapsible=1;marginBottom=0;swimlaneFillColor=#ffffff;rounded=0;shadow=0;comic=0;labelBackgroundColor=none;strokeWidth=1;fillColor=none;fontFamily=Verdana;fontSize=12" vertex="1" parent="aRxAqIZzdnKw0f7hVjHK-1">
          <mxGeometry x="-380" y="590" width="190" height="40" as="geometry" />
        </mxCell>
        <mxCell id="aRxAqIZzdnKw0f7hVjHK-14" value="" style="line;html=1;strokeWidth=1;fillColor=none;align=left;verticalAlign=middle;spacingTop=-1;spacingLeft=3;spacingRight=3;rotatable=0;labelPosition=right;points=[];portConstraint=eastwest;" vertex="1" parent="aRxAqIZzdnKw0f7hVjHK-13">
          <mxGeometry y="26" width="190" height="14" as="geometry" />
        </mxCell>
        <mxCell id="7jaC44fbJ2VBSSzQAQBC-0" value="Use" style="endArrow=open;endSize=12;dashed=1;html=1;rounded=0;entryX=0.5;entryY=1;entryDx=0;entryDy=0;exitX=0.5;exitY=0;exitDx=0;exitDy=0;" edge="1" parent="aRxAqIZzdnKw0f7hVjHK-1" source="aRxAqIZzdnKw0f7hVjHK-4" target="aRxAqIZzdnKw0f7hVjHK-2">
          <mxGeometry width="160" relative="1" as="geometry">
            <mxPoint x="-565" y="250" as="sourcePoint" />
            <mxPoint x="-675" y="280" as="targetPoint" />
          </mxGeometry>
        </mxCell>
        <mxCell id="7jaC44fbJ2VBSSzQAQBC-1" value="Use" style="endArrow=open;endSize=12;dashed=1;html=1;rounded=0;entryX=0.5;entryY=1;entryDx=0;entryDy=0;exitX=0.5;exitY=0;exitDx=0;exitDy=0;" edge="1" parent="aRxAqIZzdnKw0f7hVjHK-1" source="aRxAqIZzdnKw0f7hVjHK-4" target="aRxAqIZzdnKw0f7hVjHK-10">
          <mxGeometry width="160" relative="1" as="geometry">
            <mxPoint x="84.5" y="280" as="sourcePoint" />
            <mxPoint x="-130" y="220" as="targetPoint" />
          </mxGeometry>
        </mxCell>
        <mxCell id="7jaC44fbJ2VBSSzQAQBC-2" value="Use" style="endArrow=open;endSize=12;dashed=1;html=1;rounded=0;entryX=0.5;entryY=1;entryDx=0;entryDy=0;exitX=0.5;exitY=0;exitDx=0;exitDy=0;" edge="1" parent="aRxAqIZzdnKw0f7hVjHK-1" source="aRxAqIZzdnKw0f7hVjHK-4" target="aRxAqIZzdnKw0f7hVjHK-5">
          <mxGeometry width="160" relative="1" as="geometry">
            <mxPoint x="-400" y="240" as="sourcePoint" />
            <mxPoint x="-607.5" y="240" as="targetPoint" />
          </mxGeometry>
        </mxCell>
      </root>
    </mxGraphModel>
  </diagram>
</mxfile>
